<svg viewBox="0 0 11 11" width="220px" height="220px" xmlns="http://www.w3.org/2000/svg"><path fill-rule="evenodd" d="M 1,1 10,1 10,6 9,6 9,10 2,10 2,6 1,6z" fill="#9179F2"/><path fill-rule="evenodd" d="M 2,2 3,2 3,3 2,3z" fill="#ffffff"/><path fill-rule="evenodd" d="M 4,2 5,2 5,3 4,3z" fill="#ffffff"/><path fill-rule="evenodd" d="M 6,2 9,2 9,5 6,5z M 7,3 8,3 8,4 7,4z" fill="#ffffff"/><path fill-rule="evenodd" d="M 3,3 4,3 4,4 3,4z" fill="#ffffff"/><path fill-rule="evenodd" d="M 2,4 3,4 3,5 2,5z" fill="#ffffff"/><path fill-rule="evenodd" d="M 4,4 5,4 5,5 4,5z" fill="#ffffff"/><path fill-rule="evenodd" d="M 3,7 8,7 8,9 3,9z" fill="#ffffff"/></svg>